<?xml version="1.0" encoding="UTF-8" standalone="no"?>
<svg width="750px" height="486px" viewBox="0 0 750 486" version="1.1" xmlns="http://www.w3.org/2000/svg" xmlns:xlink="http://www.w3.org/1999/xlink">
    <!-- Generator: Sketch 39.1 (31720) - http://www.bohemiancoding.com/sketch -->
    <title>Slice 1</title>
    <desc>Created with Sketch.</desc>
    <defs></defs>
    <g id="Page-1" stroke="none" stroke-width="1" fill="none" fill-rule="evenodd">
        <g id="Line_Illustration" transform="translate(2.000000, 1.000000)">
            <rect id="BG" fill="#FCF5EA" x="0" y="0" width="747" height="485"></rect>
            <g id="Group">
                <g id="pencil" transform="translate(16.000000, 261.000000)">
                    <path d="M98.2,0.5 C99.5,0.5 100.6,1.8 100.6,3.3 L100.6,19 C100.6,20.5 99.5,21.8 98.2,21.8 L86.4,21.8 C85.1,21.8 84,20.5 84,19 L84,3.3 C84,1.8 85.1,0.5 86.4,0.5 L98.2,0.5 L98.2,0.5 Z" id="Shape" fill="#D9A128"></path>
                    <polygon id="Shape" stroke="#D9A128" stroke-width="3" fill="#FCF5EA" points="64.3 20.2 13.8 20.2 2.8 11.1 14 1.9 64.3 2 87.2 2 87.2 20.3"></polygon>
                    <polygon id="Shape" stroke="#D9A128" stroke-width="2" fill="#ECCA8D" points="14.3 20.2 12.8 20.2 1.8 11.1 13 1.9 14.2 1.9 13 7.7 14.2 7.5 12.9 13.3 14.3 13.3"></polygon>
                    <g id="Group" transform="translate(0.000000, 8.000000)" fill="#D9A128">
                        <polygon id="Shape" points="5.4 6.1 5.4 0.1 0.8 3.1"></polygon>
                        <polygon id="Shape" points="5.4 2 0.8 3.1 5.4 0.1"></polygon>
                    </g>
                </g>
                <g id="watch" transform="translate(597.000000, 136.000000)">
                    <path d="M35.9,71.6 C35.9,75.3 32.9,78.2 29.3,78.2 L15.2,78.2 C11.5,78.2 8.6,75.2 8.6,71.6 L8.6,7.3 C8.6,3.6 11.6,0.7 15.2,0.7 L29.3,0.7 C33,0.7 35.9,3.7 35.9,7.3 L35.9,71.6 L35.9,71.6 Z" id="Shape" stroke="#D9A128" stroke-width="3" fill="#ECCA8D"></path>
                    <path d="M36.3,143.2 C36.3,146.9 33.3,149.8 29.7,149.8 L15.6,149.8 C11.9,149.8 9,146.8 9,143.2 L9,78.9 C9,75.2 12,72.3 15.6,72.3 L29.7,72.3 C33.4,72.3 36.3,75.3 36.3,78.9 L36.3,143.2 L36.3,143.2 Z" id="Shape" stroke="#D9A128" stroke-width="3" fill="#ECCA8D"></path>
                    <rect id="Rectangle-path" stroke="#D9A128" stroke-width="2" fill="#D9A128" x="45.2" y="71.1" width="5" height="4.3"></rect>
                    <path d="M0.1,73.3 C0.1,85.6 10.1,95.5 22.3,95.5 C34.6,95.5 44.5,85.5 44.5,73.3 C44.5,61 34.5,51.1 22.3,51.1 C10,51.1 0.1,61 0.1,73.3 L0.1,73.3 Z" id="Shape" stroke="#D9A128" stroke-width="5" fill="#FFFFFF"></path>
                    <circle id="Oval" fill="#D9A128" cx="22.4" cy="73.9" r="2.8"></circle>
                    <rect id="Rectangle-path" stroke="#D9A128" stroke-width="1.99999298" transform="translate(27.012945, 71.668315) rotate(-32.188192) translate(-27.012945, -71.668315) " x="23.5629571" y="71.1683168" width="6.9" height="0.4"></rect>
                    <rect id="Rectangle-path" stroke="#D9A128" stroke-width="2" x="22.1" y="63" width="0.5" height="9.4"></rect>
                    <g id="Group" transform="translate(22.000000, 100.000000)" fill="#D9A128">
                        <rect id="Rectangle-path" x="0.2" y="0.5" width="0.8" height="4.2"></rect>
                        <rect id="Rectangle-path" x="0.2" y="5.8" width="0.8" height="4.2"></rect>
                        <rect id="Rectangle-path" x="0.2" y="11.1" width="0.8" height="4.2"></rect>
                        <rect id="Rectangle-path" x="0.2" y="16.4" width="0.8" height="4.2"></rect>
                        <rect id="Rectangle-path" x="0.2" y="21.7" width="0.8" height="4.2"></rect>
                        <rect id="Rectangle-path" x="0.2" y="27" width="0.8" height="4.2"></rect>
                        <rect id="Rectangle-path" x="0.2" y="32.3" width="0.8" height="4.2"></rect>
                    </g>
                    <g id="Group" transform="translate(21.000000, 10.000000)" fill="#D9A128">
                        <rect id="Rectangle-path" x="0.8" y="0.4" width="0.8" height="4.2"></rect>
                        <rect id="Rectangle-path" x="0.8" y="5.7" width="0.8" height="4.2"></rect>
                        <rect id="Rectangle-path" x="0.8" y="11" width="0.8" height="4.2"></rect>
                        <rect id="Rectangle-path" x="0.8" y="16.3" width="0.8" height="4.2"></rect>
                        <rect id="Rectangle-path" x="0.8" y="21.6" width="0.8" height="4.2"></rect>
                        <rect id="Rectangle-path" x="0.8" y="26.9" width="0.8" height="4.2"></rect>
                        <rect id="Rectangle-path" x="0.8" y="32.2" width="0.8" height="4.2"></rect>
                    </g>
                    <rect id="Rectangle-path" stroke="#D9A128" stroke-width="2" fill="#D9A128" x="8.5" y="11" width="26.6" height="4.8"></rect>
                </g>
                <g id="row2" transform="translate(158.000000, 284.000000)">
                    <g id="ipad">
                        <path d="M133.2,170.6 C133.2,172.8 131.4,174.6 129.2,174.6 L4.7,174.6 C2.5,174.6 0.7,172.8 0.7,170.6 L0.7,4.3 C0.7,2.1 2.5,0.3 4.7,0.3 L129.3,0.3 C131.5,0.3 133.3,2.1 133.3,4.3 L133.3,170.6 L133.2,170.6 Z" id="Shape" stroke="#D9A128" stroke-width="3" fill="#FFFFFF"></path>
                        <g id="Group" transform="translate(4.000000, 8.000000)">
                            <g id="XMLID_1_-link" transform="translate(10.000000, 8.000000)" fill="#ECCA8D">
                                <rect id="XMLID_1_" x="0.3" y="0.2" width="105.4" height="142.5"></rect>
                            </g>
                            <polygon id="Shape" fill="#FCF5EA" opacity="0.4" points="0.3 5.5 0.3 155.5 51.3 155.5 92.3 7.5 94.3 0.5"></polygon>
                            <g id="XMLID_1_-link" transform="translate(10.000000, 8.000000)" stroke="#D9A128" stroke-width="2">
                                <rect id="XMLID_1_" x="0.3" y="0.2" width="105.4" height="142.5"></rect>
                            </g>
                        </g>
                        <rect id="Rectangle-path" fill="#D9A128" x="64.8" y="7.1" width="2.5" height="2.5"></rect>
                        <circle id="Oval" stroke="#D9A128" stroke-width="2" fill="#FFFFFF" cx="67" cy="166.2" r="3.8"></circle>
                    </g>
                    <g id="mobile_1_" transform="translate(163.000000, 41.000000)">
                        <path d="M68.7,132.1 C68.7,134.4 66.9,136.2 64.6,136.2 L4.8,136.2 C2.5,136.2 0.7,134.3 0.7,132.1 L0.7,5 C0.7,2.7 2.5,0.9 4.8,0.9 L64.6,0.9 C66.9,0.9 68.7,2.8 68.7,5 L68.7,132.1 L68.7,132.1 Z" id="Shape" stroke="#D9A128" stroke-width="3" fill="#FFFFFF"></path>
                        <g id="Group" transform="translate(4.000000, 17.000000)">
                            <g id="XMLID_2_-link" transform="translate(3.000000, 2.000000)" fill="#ECCA8D">
                                <rect id="XMLID_2_" x="0.4" y="0" width="54.7" height="100.3"></rect>
                            </g>
                            <polygon id="Shape" fill="#FCF5EA" opacity="0.4" points="0.6 103.2 0.6 0 40.9 0 18.3 103.7"></polygon>
                            <g id="XMLID_2_-link" transform="translate(3.000000, 2.000000)" stroke="#D9A128" stroke-width="2">
                                <rect id="XMLID_2_" x="0.4" y="0" width="54.7" height="100.3"></rect>
                            </g>
                        </g>
                        <g id="Group" transform="translate(29.000000, 6.000000)" fill="#D9A128">
                            <rect id="Rectangle-path" x="0.5" y="5.4" width="10.4" height="1.8"></rect>
                            <rect id="Rectangle-path" x="4.5" y="0.5" width="2" height="2"></rect>
                        </g>
                        <circle id="Oval" stroke="#D9A128" stroke-width="2" fill="#FFFFFF" cx="34.7" cy="127.6" r="3.2"></circle>
                    </g>
                    <g id="pen" transform="translate(433.000000, 155.000000)">
                        <path d="M152.3,13.5 L140.5,13.5 C138.8,13.5 137.5,12.1 137.5,10.5 L137.5,3.1 C137.5,1.4 138.8,0.1 140.5,0.1 L152.3,0.1 C153.9,0.1 155.3,1.4 155.3,3.1 L155.3,10.5 C155.3,12.2 154,13.5 152.3,13.5 L152.3,13.5 Z" id="Shape" stroke="#D9A128" stroke-width="2" fill="#FCF5EA"></path>
                        <polygon id="Shape" stroke="#D9A128" stroke-width="2" fill="#FCF5EA" points="0.1 5.1 3.6 5.1 13.7 0.1 145.9 0.1 146.5 0.1 146.5 13.5 13.2 13.5 3.5 8.6 0.1 8.3"></polygon>
                        <rect id="Rectangle-path" fill="#ECCA8D" x="14.9" y="1.1" width="123.7" height="11.3"></rect>
                        <rect id="Rectangle-path" fill="#D9A128" x="14.7" y="0.4" width="69.1" height="12.3"></rect>
                        <polygon id="Shape" fill="#ECCA8D" points="14.9 0.1 3.9 5.1 0.1 5.1 0.1 8.3 3.8 8.6 14.9 13.5"></polygon>
                        <rect id="Rectangle-path" stroke="#D9A128" fill="#FFFFFF" x="20.3" y="4.4" width="30.5" height="5.1"></rect>
                        <rect id="Rectangle-path" stroke="#D9A128" fill="#ECCA8D" x="23.1" y="6" width="11" height="1.9"></rect>
                        <rect id="Rectangle-path" fill="#D9A128" x="138.5" y="1" width="7.2" height="12"></rect>
                    </g>
                    <g id="apple_tv" transform="translate(262.000000, 75.000000)">
                        <path d="M100.8,92 C100.8,95.7 97.8,98.6 94.2,98.6 L7.2,98.6 C3.5,98.6 0.6,95.6 0.6,92 L0.6,7.2 C0.6,3.5 3.6,0.6 7.2,0.6 L94.2,0.6 C97.9,0.6 100.8,3.6 100.8,7.2 L100.8,92 L100.8,92 Z" id="Shape" stroke="#D9A128" stroke-width="2" fill="#ECCA8D"></path>
                        <g id="Group" transform="translate(28.000000, 33.000000)" fill="#D9A128">
                            <g id="apple_logo_3_" transform="translate(0.000000, 3.000000)">
                                <path d="M17,7.6 C17,7.6 11.8,11.5 17.6,15.8 C17.6,15.8 15.7,21.2 13,21.4 C13,21.4 11.3,21 10.5,20.7 C10.5,20.7 8.8,20.2 7,21.5 C7,21.5 4.9,21.6 4.5,20.9 C4.5,20.9 1.7,18.6 0.8,14.2 C0.8,14.2 -0.8,8.4 4.2,6.1 C4.2,6.1 5.8,5.2 8.5,6.6 C8.5,6.6 9.8,6.8 11.6,6 C11.7,5.8 14.3,4.6 17,7.6 L17,7.6 Z" id="Shape"></path>
                                <path d="M8.5,5.3 C8.5,5.3 8.1,0.9 13,0 C13,0 14,4.6 8.5,5.3 L8.5,5.3 Z" id="Shape"></path>
                            </g>
                            <text id="tv" font-family="Helvetica" font-size="23" font-weight="normal">
                                <tspan x="23.0619" y="23.0958">tv</tspan>
                            </text>
                        </g>
                    </g>
                    <g id="Remote" transform="translate(379.000000, 53.000000)">
                        <path d="M32.9,116.8 C32.9,120.5 29.9,123.4 26.3,123.4 L7.3,123.4 C3.6,123.4 0.7,120.4 0.7,116.8 L0.7,6.8 C0.7,3.1 3.7,0.2 7.3,0.2 L26.3,0.2 C30,0.2 32.9,3.2 32.9,6.8 L32.9,116.8 L32.9,116.8 Z" id="Shape" stroke="#D9A128" stroke-width="3" fill="#ECCA8D"></path>
                        <circle id="Oval" stroke="#D9A128" stroke-width="2" fill="#FFFFFF" cx="16.8" cy="26" r="11.3"></circle>
                        <circle id="Oval" fill="#D9A128" cx="16.8" cy="26.4" r="5.3"></circle>
                        <circle id="Oval" stroke="#D9A128" stroke-width="2" fill="#FFFFFF" cx="9.4" cy="44.9" r="5"></circle>
                        <circle id="Oval" stroke="#D9A128" stroke-width="2" fill="#FFFFFF" cx="24.1" cy="44.9" r="5"></circle>
                    </g>
                </g>
                <g id="Dairy" transform="translate(15.000000, 296.000000)">
                    <path d="M0.5,0.7 L0.5,164 L105.2,164 C113.3,164 118,152.9 118,146.2 L118,109.2 L118,39.4 C118,34.2 118.2,29.1 118.2,23.9 C118.2,19.8 118.7,15.3 116.9,11.6 C114.2,6.2 109.2,0.6 102.8,0.6 C102.7,0.7 0.5,0.7 0.5,0.7 L0.5,0.7 Z" id="Shape" stroke="#D9A128" stroke-width="3" fill="#ECCA8D"></path>
                    <path d="M15.8,1.3 L15.8,163.7" id="Shape" stroke="#D9A128" stroke-width="3"></path>
                    <rect id="Rectangle-path" stroke="#D9A128" stroke-width="2" fill="#FCF5EA" x="88.5" y="0.7" width="14.2" height="163"></rect>
                    <polygon id="Shape" fill="#D9A128" points="23.5 163.7 23.5 188.7 36 180.7 36 162.7"></polygon>
                </g>
                <g id="coffee" transform="translate(426.000000, 125.000000)">
                    <path d="M91.8,66.6 C89.8,68.4 87.4,69.8 84.8,70.9 C71.9,76.1 57.2,69.9 52,57 C46.8,44.1 53,29.4 65.9,24.2 C78.8,19 93.5,25.2 98.7,38.1 C100.6,42.9 101,47.9 100,52.6" id="Shape" stroke="#D9A128"></path>
                    <path d="M3,36.2 L15.2,36.2 C16.6,36.2 17.8,35 17.8,33.6 L17.8,25.6 C17.8,24.2 16.6,23 15.2,23 L3,23 C1.6,23 0.4,24.2 0.4,25.6 L0.4,33.6 C0.4,35 1.6,36.2 3,36.2 L3,36.2 Z" id="Handle" stroke="#D9A128" stroke-width="2" fill="#FFFFFF"></path>
                    <circle id="Oval" fill="#D9A128" cx="99.7" cy="57.8" r="2.2"></circle>
                    <circle id="Oval" fill="#D9A128" cx="99.4" cy="64.4" r="1.4"></circle>
                    <circle id="Oval" stroke="#D9A128" stroke-width="3" fill="#FFFFFF" cx="50.5" cy="35.1" r="34.8"></circle>
                    <circle id="Oval" stroke="#D9A128" stroke-width="2" fill="#ECCA8D" cx="50.5" cy="35.1" r="27.8"></circle>
                    <path d="M39.5,10.4 C37.7,10.9 36.1,11.8 34.7,12.9 C29,17 24.1,22.9 22.7,30 C21.9,34.1 22.5,38.4 23.9,42.2 C24.6,44.2 25.5,46.1 26.6,47.9 C27.1,48.8 27.7,49.6 28.3,50.4 C29.7,52.3 32.6,49.3 33.8,48.4 C34.9,47.6 36.1,46.8 37.1,45.8 C40,43 41.2,40.6 40.5,36.6 C40,33.3 36.2,30.1 38.2,26.7 C39.8,23.7 43.6,22.6 46.6,21.6 C48,21.2 49.4,20.5 49.8,18.9 C50.4,15.9 48,12.2 45.5,10.8 C43.6,10 41.5,9.9 39.5,10.4 L39.5,10.4 Z" id="Shape" stroke="#D9A128" stroke-width="2" fill="#FCF5EA"></path>
                </g>
                <g id="notes_1_" transform="translate(397.000000, 0.000000)">
                    <rect id="Rectangle-path" stroke="#D9A128" stroke-width="3" fill="#FCF5EA" x="0.6" y="2.7" width="57" height="84.8"></rect>
                    <g id="lines" transform="translate(1.000000, 19.000000)" stroke="#D9A128">
                        <path d="M0.8,8.3 L56.6,8.3" id="Shape"></path>
                        <path d="M0.8,16.3 L56.6,16.3" id="Shape"></path>
                        <path d="M0.8,24.3 L56.6,24.3" id="Shape"></path>
                        <path d="M0.8,32.3 L56.6,32.3" id="Shape"></path>
                        <path d="M0.8,40.3 L56.6,40.3" id="Shape"></path>
                        <path d="M0.8,48.3 L56.6,48.3" id="Shape"></path>
                        <path d="M0.8,56.3 L56.6,56.3" id="Shape"></path>
                    </g>
                    <g id="Group" transform="translate(6.000000, 8.000000)" fill="#D9A128">
                        <rect id="Rectangle-path" x="0.1" y="0" width="4.8" height="4.1"></rect>
                        <rect id="Rectangle-path" x="9.9" y="0" width="4.8" height="4.1"></rect>
                        <rect id="Rectangle-path" x="20.3" y="0" width="4.8" height="4.1"></rect>
                        <rect id="Rectangle-path" x="30.1" y="0" width="4.8" height="4.1"></rect>
                        <rect id="Rectangle-path" x="40.2" y="0" width="4.8" height="4.1"></rect>
                    </g>
                    <g id="Group" transform="translate(4.000000, 0.000000)" stroke="#D9A128" stroke-width="2">
                        <path d="M6,11 C3.2,11 0.9,8.7 0.9,5.9 C0.9,3.1 3.2,0.8 6,0.8" id="Shape"></path>
                        <path d="M15.8,11 C13,11 10.7,8.7 10.7,5.9 C10.7,3.1 13,0.8 15.8,0.8" id="Shape"></path>
                        <path d="M26.2,11 C23.4,11 21.1,8.7 21.1,5.9 C21.1,3.1 23.4,0.8 26.2,0.8" id="Shape"></path>
                        <path d="M36,11 C33.2,11 30.9,8.7 30.9,5.9 C30.9,3.1 33.2,0.8 36,0.8" id="Shape"></path>
                        <path d="M46.3,11 C43.5,11 41.2,8.7 41.2,5.9 C41.2,3.1 43.5,0.8 46.3,0.8" id="Shape"></path>
                    </g>
                </g>
                <g id="pendrive" transform="translate(406.000000, 251.000000)">
                    <polygon id="Shape" stroke="#D9A128" stroke-width="2" fill="#ECCA8D" points="24.6 0.9 94.9 0.9 94.9 34.4 25.1 34.4 19.8 30.5 19.8 5.7"></polygon>
                    <path d="M144.3,17.6 C144.3,26.2 137.2,33.2 128.4,33.2 L73.4,33.2 C64.6,33.2 57.5,26.2 57.5,17.6 L57.5,17.6 C57.5,9 64.6,2 73.4,2 L128.4,2 C137.2,2 144.3,9 144.3,17.6 L144.3,17.6 L144.3,17.6 Z" id="Shape" stroke="#D9A128" stroke-width="3" fill="#FCF5EA"></path>
                    <polyline id="Shape" stroke="#D9A128" stroke-width="3" fill="#FCF5EA" points="93.9 2.1 159.2 2.1 159.2 33.2 93.9 33.2"></polyline>
                    <circle id="Oval" fill="#D9A128" cx="74.7" cy="17.3" r="11.7"></circle>
                    <rect id="Rectangle-path" stroke="#D9A128" stroke-width="2" fill="#FCF5EA" x="0.8" y="8.6" width="19" height="19"></rect>
                    <rect id="Rectangle-path" stroke="#D9A128" fill="#FFFFFF" x="8.3" y="11.9" width="3.8" height="4"></rect>
                    <rect id="Rectangle-path" stroke="#D9A128" fill="#FFFFFF" x="8.3" y="20.5" width="3.8" height="4"></rect>
                </g>
                <g id="mac" transform="translate(0.000000, 41.000000)">
                    <g id="Group">
                        <path d="M281.3,162.5 C281.3,164.7 279.5,166.5 277.3,166.5 L4.3,166.5 C2.1,166.5 0.3,164.7 0.3,162.5 L0.3,4.8 C0.3,2.6 2.1,0.8 4.3,0.8 L277.3,0.8 C279.5,0.8 281.3,2.6 281.3,4.8 L281.3,162.5 L281.3,162.5 Z" id="Shape" fill="#ECCA8D"></path>
                        <path d="M281.3,162.5 C281.3,164.7 279.5,166.5 277.3,166.5 L4.3,166.5 C2.1,166.5 0.3,164.7 0.3,162.5 L0.3,4.8 C0.3,2.6 2.1,0.8 4.3,0.8 L277.3,0.8 C279.5,0.8 281.3,2.6 281.3,4.8 L281.3,162.5 L281.3,162.5 Z" id="Shape" stroke="#D9A128" stroke-width="3"></path>
                    </g>
                    <g id="apple_logo_1_" transform="translate(129.000000, 69.000000)" fill="#D9A128">
                        <path d="M22.4,10.5 C22.4,10.5 15.4,15.7 23.2,21.5 C23.2,21.5 20.7,28.7 17,28.9 C17,28.9 14.8,28.4 13.7,27.9 C13.7,27.9 11.4,27.3 9,28.9 C9,28.9 6.2,29 5.7,28 C5.7,28 2,24.9 0.8,19 C0.8,19 -1.4,11.2 5.4,8.1 C5.4,8.1 7.5,7 11.2,8.8 C11.2,8.8 12.9,9.1 15.4,8 C15.3,8.1 18.9,6.4 22.4,10.5 L22.4,10.5 Z" id="Shape"></path>
                        <path d="M11.1,7.4 C11.1,7.4 10.6,1.6 17.2,0.3 C17.1,0.3 18.4,6.4 11.1,7.4 L11.1,7.4 Z" id="Shape"></path>
                    </g>
                </g>
                <g id="mouse" transform="translate(311.000000, 115.000000)">
                    <g id="Group">
                        <path d="M42.7,67.5 C42.7,79.1 33.3,88.4 21.8,88.4 L21.8,88.4 C10.2,88.4 0.9,79 0.9,67.5 L0.9,21.5 C0.9,9.9 10.3,0.6 21.8,0.6 L21.8,0.6 L22.8,0.6 C33.9,1.1 42.7,10.3 42.7,21.5 L42.7,67.5 L42.7,67.5 Z" id="Shape" fill="#FCF5EA"></path>
                        <path d="M42.7,67.5 C42.7,79.1 33.3,88.4 21.8,88.4 L21.8,88.4 C10.2,88.4 0.9,79 0.9,67.5 L0.9,21.5 C0.9,9.9 10.3,0.6 21.8,0.6 L21.8,0.6 L22.8,0.6 C33.9,1.1 42.7,10.3 42.7,21.5 L42.7,67.5 L42.7,67.5 Z" id="Shape" stroke="#D9A128" stroke-width="3"></path>
                    </g>
                    <g id="apple_logo_2_" transform="translate(15.000000, 55.000000)" fill="#D9A128">
                        <path d="M12.6,6.5 C12.6,6.5 8.7,9.4 13.1,12.6 C13.1,12.6 11.7,16.6 9.7,16.7 C9.7,16.7 8.5,16.4 7.8,16.2 C7.8,16.2 6.5,15.9 5.2,16.8 C5.2,16.8 3.6,16.9 3.4,16.3 C3.4,16.3 1.3,14.6 0.6,11.3 C0.6,11.3 -0.6,7 3.1,5.3 C3.1,5.3 4.3,4.7 6.3,5.6 C6.3,5.6 7.2,5.8 8.6,5.2 C8.6,5.2 10.6,4.3 12.6,6.5 L12.6,6.5 Z" id="Shape"></path>
                        <path d="M6.3,4.8 C6.3,4.8 6,1.6 9.6,0.8 C9.6,0.9 10.3,4.3 6.3,4.8 L6.3,4.8 Z" id="Shape"></path>
                    </g>
                </g>
            </g>
        </g>
    </g>
</svg>