<?xml version="1.0" encoding="utf-8"?>
<!-- Generator: Adobe Illustrator 17.0.2, SVG Export Plug-In . SVG Version: 6.00 Build 0)  -->
<!DOCTYPE svg PUBLIC "-//W3C//DTD SVG 1.1//EN" "http://www.w3.org/Graphics/SVG/1.1/DTD/svg11.dtd">
<svg version="1.1" id="Layer_1" xmlns="http://www.w3.org/2000/svg" xmlns:xlink="http://www.w3.org/1999/xlink" x="0px" y="0px"
	 width="32px" height="32px" viewBox="0 0 32 32" enable-background="new 0 0 32 32" xml:space="preserve">
<g>
	<path fill="#1C1C1C" d="M13,0H2C0.895,0,0,0.895,0,2v11c0,1.105,0.895,2,2,2h11c1.105,0,2-0.895,2-2V2C15,0.895,14.105,0,13,0z
		 M14,12c0,1.105-0.895,2-2,2H3c-1.105,0-2-0.895-2-2V3c0-1.105,0.895-2,2-2h9c1.105,0,2,0.895,2,2V12z"/>
	<path fill="#1C1C1C" d="M30,0H19c-1.105,0-2,0.895-2,2v11c0,1.105,0.895,2,2,2h11c1.105,0,2-0.895,2-2V2C32,0.895,31.105,0,30,0z
		 M31,12c0,1.105-0.895,2-2,2h-9c-1.105,0-2-0.895-2-2V3c0-1.105,0.895-2,2-2h9c1.105,0,2,0.895,2,2V12z"/>
	<path fill="#1C1C1C" d="M13,17H2c-1.105,0-2,0.895-2,2v11c0,1.105,0.895,2,2,2h11c1.105,0,2-0.895,2-2V19
		C15,17.895,14.105,17,13,17z M14,29c0,1.105-0.895,2-2,2H3c-1.105,0-2-0.895-2-2v-9c0-1.105,0.895-2,2-2h9c1.105,0,2,0.895,2,2V29z
		"/>
	<path fill="#1C1C1C" d="M30,17H19c-1.105,0-2,0.895-2,2v11c0,1.105,0.895,2,2,2h11c1.105,0,2-0.895,2-2V19
		C32,17.895,31.105,17,30,17z M31,29c0,1.105-0.895,2-2,2h-9c-1.105,0-2-0.895-2-2v-9c0-1.105,0.895-2,2-2h9c1.105,0,2,0.895,2,2V29
		z"/>
</g>
</svg>
