<?xml version="1.0" encoding="iso-8859-1"?>
<!-- Generator: Adobe Illustrator 18.0.0, SVG Export Plug-In . SVG Version: 6.00 Build 0)  -->
<!DOCTYPE svg PUBLIC "-//W3C//DTD SVG 1.1//EN" "http://www.w3.org/Graphics/SVG/1.1/DTD/svg11.dtd">
<svg version="1.1" xmlns="http://www.w3.org/2000/svg" xmlns:xlink="http://www.w3.org/1999/xlink" x="0px" y="0px"
	 viewBox="0 0 44.242 44.14" style="enable-background:new 0 0 44.242 44.14;" xml:space="preserve">
<g id="linkedin">
	<g>
		<path style="fill:#3F4099;" d="M0.727,14.657h9.178V44.14H0.727V14.657z M5.319,0c2.934,0,5.313,2.382,5.313,5.312
			c0,2.933-2.379,5.315-5.313,5.315C2.375,10.627,0,8.245,0,5.312C0,2.382,2.375,0,5.319,0"/>
		<path style="fill:#3F4099;" d="M15.658,14.657h8.789v4.03h0.125c1.222-2.32,4.215-4.762,8.676-4.762
			c9.277,0,10.994,6.103,10.994,14.044V44.14h-9.161V29.806c0-3.422-0.067-7.821-4.766-7.821c-4.772,0-5.499,3.724-5.499,7.568
			V44.14h-9.158V14.657z"/>
	</g>
</g>
<g id="Layer_1">
</g>
</svg>
