<?xml version="1.0" encoding="iso-8859-1"?>
<!-- Generator: Adobe Illustrator 18.0.0, SVG Export Plug-In . SVG Version: 6.00 Build 0)  -->
<!DOCTYPE svg PUBLIC "-//W3C//DTD SVG 1.1//EN" "http://www.w3.org/Graphics/SVG/1.1/DTD/svg11.dtd">
<svg version="1.1" xmlns="http://www.w3.org/2000/svg" xmlns:xlink="http://www.w3.org/1999/xlink" x="0px" y="0px"
	 viewBox="0 0 42.655 34.664" style="enable-background:new 0 0 42.655 34.664;" xml:space="preserve">
<g id="Twitter">
	<path style="fill:#27AAE1;" d="M42.655,4.103c-1.57,0.697-3.257,1.167-5.026,1.378c1.807-1.083,3.196-2.797,3.848-4.841
		c-1.689,1.003-3.561,1.732-5.555,2.125C34.324,1.062,32.049,0,29.532,0c-4.833,0-8.751,3.919-8.751,8.751
		c0,0.687,0.077,1.353,0.226,1.994c-7.272-0.364-13.72-3.847-18.037-9.144C2.217,2.895,1.785,4.398,1.785,6.002
		c0,3.035,1.544,5.716,3.891,7.284c-1.433-0.044-2.783-0.44-3.963-1.095v0.11c0,4.239,3.017,7.777,7.019,8.581
		c-0.733,0.199-1.509,0.309-2.306,0.309c-0.562,0-1.113-0.056-1.646-0.159c1.113,3.477,4.345,6.006,8.174,6.079
		c-2.993,2.346-6.766,3.746-10.869,3.746c-0.705,0-1.401-0.043-2.086-0.123c3.872,2.481,8.472,3.93,13.417,3.93
		c16.096,0,24.898-13.333,24.898-24.898c0-0.378-0.01-0.756-0.024-1.134C39.997,7.4,41.479,5.859,42.655,4.103z"/>
</g>
<g id="Layer_1">
</g>
</svg>
